<?xml version="1.0" encoding="iso-8859-1"?>
<!-- Generator: Adobe Illustrator 19.0.0, SVG Export Plug-In . SVG Version: 6.00 Build 0)  -->
<svg version="1.1" id="Layer_1" xmlns="http://www.w3.org/2000/svg" xmlns:xlink="http://www.w3.org/1999/xlink" x="0px" y="0px"
	 viewBox="0 0 512 512" style="enable-background:new 0 0 512 512;" xml:space="preserve">
<g>
	<g>
		<path d="M437.02,74.982C388.667,26.628,324.38,0,256,0S123.333,26.628,74.98,74.982C26.628,123.333,0,187.619,0,256
			s26.628,132.667,74.98,181.019C123.333,485.372,187.62,512,256,512s132.667-26.628,181.02-74.981
			C485.372,388.667,512,324.381,512,256S485.372,123.333,437.02,74.982z M256,491.602c-129.911,0-235.602-105.69-235.602-235.602
			S126.089,20.398,256,20.398S491.602,126.089,491.602,256S385.911,491.602,256,491.602z"/>
	</g>
</g>
<g>
	<g>
		<path d="M256,50.996C142.96,50.996,50.996,142.96,50.996,256S142.96,461.004,256,461.004S461.004,369.04,461.004,256
			S369.04,50.996,256,50.996z M392.804,379.82l-14.2-14.2c-3.983-3.982-10.441-3.982-14.425,0c-3.983,3.983-3.983,10.441,0,14.425
			l14.115,14.115c-30.45,26.984-69.843,44.088-113.114,46.217v-20.169c0-5.632-4.566-10.199-10.199-10.199
			c-5.633,0-10.199,4.567-10.199,10.199v20.048c-43.19-2.602-82.424-20.111-112.602-47.452l14.2-14.2
			c3.983-3.983,3.983-10.441,0-14.425c-3.983-3.982-10.441-3.982-14.425,0l-14.115,14.115
			c-26.983-30.45-44.087-69.843-46.217-113.113h20.17c5.633,0,10.199-4.567,10.199-10.199c0-5.632-4.566-10.199-10.199-10.199
			H71.745c2.603-43.19,20.111-82.424,47.452-112.602l14.2,14.2c1.992,1.991,4.602,2.987,7.212,2.987c2.61,0,5.221-0.996,7.212-2.987
			c3.983-3.983,3.983-10.441,0-14.425l-14.114-14.114c30.45-26.984,69.843-44.087,113.113-46.217v20.169
			c0,5.632,4.566,10.199,10.199,10.199c5.633,0,10.199-4.567,10.199-10.199V71.745c43.19,2.602,82.423,20.111,112.602,47.451
			l-14.2,14.199c-3.983,3.983-3.983,10.441,0,14.425c1.992,1.991,4.602,2.987,7.212,2.987s5.221-0.996,7.212-2.987l14.114-14.114
			c26.984,30.45,44.088,69.843,46.218,113.114h-20.169c-5.633,0-10.199,4.567-10.199,10.199c0,5.632,4.566,10.199,10.199,10.199
			h20.048C437.652,310.409,420.144,349.642,392.804,379.82z"/>
	</g>
</g>
<g>
	<g>
		<path d="M311.147,296.774l-3.057-3.058c-3.983-3.982-10.441-3.982-14.425,0c-3.983,3.983-3.983,10.441,0,14.425l3.058,3.058
			c1.992,1.991,4.602,2.987,7.212,2.987s5.221-0.996,7.212-2.987C315.13,307.216,315.13,300.758,311.147,296.774z"/>
	</g>
</g>
<g>
	<g>
		<path d="M285.651,271.277l-19.452-19.452V135.7c0-5.632-4.566-10.199-10.199-10.199c-5.633,0-10.199,4.567-10.199,10.199v120.351
			c0,2.705,1.075,5.298,2.987,7.212l22.439,22.439c1.992,1.991,4.602,2.987,7.212,2.987s5.221-0.996,7.212-2.987
			C289.634,281.719,289.634,275.261,285.651,271.277z"/>
	</g>
</g>
<g>
</g>
<g>
</g>
<g>
</g>
<g>
</g>
<g>
</g>
<g>
</g>
<g>
</g>
<g>
</g>
<g>
</g>
<g>
</g>
<g>
</g>
<g>
</g>
<g>
</g>
<g>
</g>
<g>
</g>
</svg>
